<svg width="45" height="45" viewBox="0 0 45 45" fill="none" xmlns="http://www.w3.org/2000/svg">
<path d="M21.6989 38.9426C21.6989 38.9426 17.8921 35.8637 1.90341 34.341V41.9546H17.1307C17.9872 40.1899 19.7397 39.0344 21.6989 38.9426Z" fill="#CEF0FF"/>
<path d="M23.2216 38.9426C23.2216 38.9426 27.0284 35.8637 43.0171 34.341V41.9546H27.7898C26.9332 40.1899 25.1808 39.0344 23.2216 38.9426Z" fill="#CEF0FF"/>
<path d="M1.90341 38.1478H11.8011V39.6705H1.90341V38.1478Z" fill="#58B1CC"/>
<path d="M33.1193 38.1478H43.0171V39.6705H33.1193V38.1478Z" fill="#58B1CC"/>
<path d="M30.0739 38.1478H31.5966V39.6705H30.0739V38.1478Z" fill="#58B1CC"/>
<path d="M21.6989 29.0114C21.6989 29.0114 31.5966 22.9205 23.983 16.0682C16.3693 9.21595 15.0842 4.64776 16.3693 0.840942C16.3693 0.840942 6.76788 10.3959 15.608 18.3523C23.2216 25.2046 21.6989 29.0114 21.6989 29.0114Z" fill="#DCD0F7"/>
<path d="M27.7898 15.3069C27.7898 15.3069 21.9959 11.7878 26.267 8.45458C30.5382 5.12138 30.7947 2.69268 30.0739 0.840942C30.0739 0.840942 36.5562 6.10655 31.5966 9.97731C27.3254 13.3105 27.7898 15.3069 27.7898 15.3069Z" fill="#DCD0F7"/>
<path d="M22.4602 20.6364H23.983V22.1591H22.4602V20.6364Z" fill="#D9176C"/>
<path d="M20.1761 18.3523H21.6989V19.875H20.1761V18.3523Z" fill="#D9176C"/>
<path d="M40.733 19.875C39.4716 19.875 38.4489 18.8523 38.4489 17.591C38.4489 17.1705 38.108 16.8296 37.6875 16.8296C37.2671 16.8296 36.9262 17.1705 36.9262 17.591C36.9262 18.8523 35.9035 19.875 34.6421 19.875C34.2216 19.875 33.8807 20.2159 33.8807 20.6364C33.8807 21.0569 34.2216 21.3978 34.6421 21.3978C35.9035 21.3978 36.9262 22.4205 36.9262 23.6819C36.9262 24.1023 37.2671 24.4432 37.6875 24.4432C38.108 24.4432 38.4489 24.1023 38.4489 23.6819C38.4489 22.4205 39.4716 21.3978 40.733 21.3978C41.1534 21.3978 41.4944 21.0569 41.4944 20.6364C41.4944 20.2159 41.1534 19.875 40.733 19.875ZM37.6875 21.4212C37.4656 21.1227 37.2013 20.8584 36.9027 20.6364C37.2013 20.4145 37.4656 20.1501 37.6875 19.8516C37.9095 20.1501 38.1738 20.4145 38.4723 20.6364C38.1738 20.8584 37.9095 21.1227 37.6875 21.4212Z" fill="#FFA451"/>
<path d="M15.608 27.4887C14.3466 27.4887 13.3239 26.466 13.3239 25.2046C13.3239 24.7841 12.983 24.4432 12.5625 24.4432C12.142 24.4432 11.8011 24.7841 11.8011 25.2046C11.8011 26.466 10.7784 27.4887 9.51704 27.4887C9.09658 27.4887 8.75568 27.8296 8.75568 28.2501C8.75568 28.6705 9.09658 29.0114 9.51704 29.0114C10.7784 29.0114 11.8011 30.0341 11.8011 31.2955C11.8011 31.716 12.142 32.0569 12.5625 32.0569C12.983 32.0569 13.3239 31.716 13.3239 31.2955C13.3239 30.0341 14.3466 29.0114 15.608 29.0114C16.0284 29.0114 16.3693 28.6705 16.3693 28.2501C16.3693 27.8296 16.0284 27.4887 15.608 27.4887ZM12.5625 29.0348C12.3406 28.7363 12.0762 28.472 11.7777 28.2501C12.0762 28.0281 12.3406 27.7638 12.5625 27.4653C12.7844 27.7638 13.0488 28.0281 13.3473 28.2501C13.0488 28.472 12.7844 28.7363 12.5625 29.0348Z" fill="#FFA451"/>
<path d="M25.5057 3.12505C24.2443 3.12505 23.2216 2.10234 23.2216 0.840954C23.2216 0.420494 22.8807 0.0795898 22.4602 0.0795898C22.0398 0.0795898 21.6989 0.420494 21.6989 0.840954C21.6989 2.10234 20.6762 3.12505 19.4148 3.12505C18.9943 3.12505 18.6534 3.46595 18.6534 3.88641C18.6534 4.30687 18.9943 4.64778 19.4148 4.64778C20.6762 4.64778 21.6989 5.67049 21.6989 6.93187C21.6989 7.35233 22.0398 7.69323 22.4602 7.69323C22.8807 7.69323 23.2216 7.35233 23.2216 6.93187C23.2216 5.67049 24.2443 4.64778 25.5057 4.64778C25.9262 4.64778 26.2671 4.30687 26.2671 3.88641C26.2671 3.46595 25.9262 3.12505 25.5057 3.12505ZM22.4602 4.6712C22.2383 4.37267 21.974 4.10835 21.6754 3.88641C21.974 3.66447 22.2383 3.40015 22.4602 3.10163C22.6822 3.40015 22.9465 3.66447 23.245 3.88641C22.9465 4.10835 22.6822 4.37267 22.4602 4.6712Z" fill="#FFA451"/>
<path d="M30.8353 14.5455H32.358V16.0682H30.8353V14.5455Z" fill="#D9176C"/>
<path d="M30.8353 24.4432H32.358V25.966H30.8353V24.4432Z" fill="#D9176C"/>
<path d="M11.0398 20.6364H12.5625V22.1591H11.0398V20.6364Z" fill="#D9176C"/>
<path d="M18.6534 32.0569H20.1761V33.5796H18.6534V32.0569Z" fill="#D9176C"/>
<path d="M4.1875 28.2501H5.71023V29.7728H4.1875V28.2501Z" fill="#D9176C"/>
<path d="M29.3125 30.5342C29.3125 31.3751 28.6307 32.0569 27.7898 32.0569C26.9489 32.0569 26.2671 31.3751 26.2671 30.5342C26.2671 29.6933 26.9489 29.0114 27.7898 29.0114C28.6307 29.0114 29.3125 29.6933 29.3125 30.5342Z" fill="#87CEE9"/>
<path d="M8.75566 17.591C8.75566 18.4319 8.07385 19.1137 7.23293 19.1137C6.39201 19.1137 5.71021 18.4319 5.71021 17.591C5.71021 16.75 6.39201 16.0682 7.23293 16.0682C8.07385 16.0682 8.75566 16.75 8.75566 17.591Z" fill="#87CEE9"/>
<path d="M39.9716 9.97732C39.9716 10.8182 39.2898 11.5 38.4489 11.5C37.608 11.5 36.9261 10.8182 36.9261 9.97732C36.9261 9.1364 37.608 8.45459 38.4489 8.45459C39.2898 8.45459 39.9716 9.1364 39.9716 9.97732Z" fill="#87CEE9"/>
<path d="M25.5057 45.0001C25.5057 43.3182 24.1421 41.9546 22.4602 41.9546C20.7784 41.9546 19.4148 43.3182 19.4148 45.0001H0.380676V41.9546L17.1307 41.9546C17.8921 40.4319 19.4148 38.9091 22.4602 38.9091C25.5057 38.9091 27.0284 40.4319 27.7898 41.9546L44.5398 41.9546V45.0001H25.5057Z" fill="#8D28AD"/>
<path d="M0.380676 41.9546L6.47159 41.9546V45.0001H0.380676V41.9546Z" fill="#5C067C"/>
<path d="M38.4489 41.9546L44.5398 41.9546V45.0001H38.4489V41.9546Z" fill="#5C067C"/>
</svg>
